<svg version="1.1" xmlns="http://www.w3.org/2000/svg" xmlns:xlink="http://www.w3.org/1999/xlink" width="97.61477" height="118.3516" viewBox="0,0,97.61477,118.3516"><g transform="translate(-180.44415,-127.6529)"><g data-paper-data="{&quot;isPaintingLayer&quot;:true}" fill-rule="nonzero" stroke="none" stroke-linecap="butt" stroke-linejoin="miter" stroke-miterlimit="10" stroke-dasharray="" stroke-dashoffset="0" style="mix-blend-mode: normal"><g stroke-width="2.6533"><g><path d="M273.14502,153.0609l3.2689,-3.1176l-0.8518,4.2851c-0.0583,0.3104 -0.6712,2.7647 -5.4445,7.5035c2.8762,-1.5389 4.2479,-2.5604 4.2638,-2.5764l3.6775,-2.8045l-1.4169,4.2267c-0.1565,0.459 -1.3558,2.3402 -9.8888,8.9071l3.6562,-2.1438l-2.0881,4.1126c-0.1565,0.3104 -3.6748,7.132 -12.9242,11.9743l2.5074,-0.0292l-1.1118,1.9794c-1.10981,1.96869 -2.77073,3.45404 -4.65901,4.57443c-0.17683,-0.42019 -0.3526,-0.83966 -0.52755,-1.25835c1.59886,-0.99109 2.98859,-2.27394 3.92366,-3.93428l0.0053,-0.0053l-1.1012,0.0132c0,0 -0.0026,0 -0.0053,0c-0.4855,0 -1.1913,-0.0079 -1.9846,-0.0212l-0.2866,-1.2656c10.7644,-4.6168 14.7125,-12.2662 14.8744,-12.5926c-0.7562,0.4431 -2.977,1.5044 -5.7656,2.6878l-0.735,-1.125c13.0516,-9.589 14.6011,-11.9955 14.747,-12.2635c-0.1485,0.1114 -2.9478,2.1704 -8.8009,4.8343l-0.7934,-1.0826c7.7344,-6.6279 8.4693,-9.918 8.4773,-9.9498v-0.0053c-0.10664,0.10169 -10.3005,9.65088 -31.4179,15.28328c-0.21991,-0.39117 -0.44311,-0.78024 -0.66989,-1.16712c20.91892,-5.59332 30.96486,-14.93779 31.07159,-15.03956z" fill="#000000"/><g><path d="M274.16393,153.9869c0,0 -1.3612,6.8323 -24.023,21.1335c-1.13551,0.71643 -2.3491,1.27214 -3.60044,1.69703c-1.18469,-2.59357 -2.43248,-5.12424 -3.80975,-7.57224c21.33353,-5.60042 31.43319,-15.25829 31.43319,-15.25829z" fill="#e5e5e5"/><path d="M249.74564,174.5712c13.6459,-8.6153 19.4884,-14.5003 21.956,-17.7373c-4.44907,3.25346 -13.91997,9.11898 -28.63691,13.01108c-0.2172,-0.39407 -0.43758,-0.78606 -0.66141,-1.17589c21.02895,-5.57512 31.13894,-15.04458 31.24582,-15.14649l1.6344,-1.5601l-0.4245,2.1438c-0.0584,0.2892 -1.6742,7.2701 -24.3201,21.5607c-1.12738,0.71223 -2.36929,1.3 -3.72058,1.76239c-0.1842,-0.40805 -0.36982,-0.81459 -0.55712,-1.21954c1.2704,-0.42892 2.43342,-0.97541 3.4844,-1.63865z" fill="#cccccc"/></g><g><path d="M275.28353,160.1824c0,0 -0.8888,2.6533 -23.5135,18.5598c-1.05745,0.74359 -2.27991,1.3124 -3.60822,1.73889c-1.20374,-2.79516 -2.44332,-5.53048 -3.79684,-8.18272c21.53837,-4.93832 30.91856,-12.11596 30.91856,-12.11596z" fill="#e5e5e5"/><path d="M274.83252,159.6703l1.8387,-1.401l-0.7111,2.1121c-0.0981,0.2918 -1.5972,3.306 -23.7655,18.8914c-1.06361,0.74783 -2.32187,1.3563 -3.76864,1.82396c-0.17598,-0.41155 -0.35261,-0.82185 -0.53013,-1.23082c1.33176,-0.42499 2.4818,-0.97684 3.44436,-1.65444c10.2683,-7.2169 16.0233,-11.6851 19.247,-14.3968c-4.85382,2.5551 -13.27833,6.19903 -25.91024,9.10048c-0.20368,-0.40618 -0.40987,-0.81047 -0.61884,-1.2128c21.23547,-4.90428 30.6687,-11.95224 30.77438,-12.03208z" fill="#cccccc"/></g><g><path d="M267.03443,170.8858c0,0 -4.59132,9.05278 -17.21664,13.51222c-0.88573,-2.12282 -1.77129,-4.21832 -2.68911,-6.27686c6.51615,-0.88208 18.04632,-6.14398 19.90575,-7.23536z" fill="#e5e5e5"/><path d="M266.65774,170.3312l2.0642,-1.2099l-1.0454,2.0537c-0.20004,0.40272 -4.87557,9.36255 -17.59881,13.84667c-0.17327,-0.41614 -0.34641,-0.83127 -0.51967,-1.24531c8.58526,-3.03887 13.40565,-8.28793 15.52098,-11.15795c-4.17152,1.95465 -12.38683,5.35501 -17.67277,6.12861c-0.18498,-0.41919 -0.37114,-0.8369 -0.55878,-1.25304c6.26968,-0.77251 17.94186,-6.0712 19.81024,-7.16276z" fill="#cccccc"/></g><g><path d="M255.53244,184.7625c-0.93944,1.66974 -2.32285,2.95895 -3.91692,3.95403c-0.56564,-1.35358 -1.12261,-2.69894 -1.67895,-4.0337c3.17035,0.12134 5.59587,0.07967 5.59587,0.07967z" fill="#e5e5e5"/><path d="M254.42604,184.1072l2.2924,-0.0266l-0.5598,0.9924c-1.02264,1.8169 -2.54228,3.20367 -4.28434,4.26184c-0.17588,-0.41954 -0.35081,-0.83833 -0.52503,-1.2563c1.12255,-0.71725 2.12607,-1.5887 2.91757,-2.64734c-1.03821,-0.00147 -2.45308,-0.01738 -4.04915,-0.07324c-0.18772,-0.45121 -0.37522,-0.90126 -0.5628,-1.35006c2.05401,0.08454 3.80398,0.09929 4.77114,0.09929z" fill="#cccccc"/></g><g><path d="" fill="#e5e5e5"/><path d="" fill="#cccccc"/></g><g><path d="" fill="#e5e5e5"/><path d="" fill="#cccccc"/></g><g><path d="" fill="#e5e5e5"/><path d="" fill="#cccccc"/></g><g><path d="" fill="#e5e5e5"/><path d="" fill="#cccccc"/></g></g><g><path d="M248.08734,164.4515c13.346,-4.3142 23.7576,-14.4286 23.7576,-14.4286c-1.96872,7.65016 -17.07999,16.65042 -27.73454,21.78022c-0.89115,-1.72089 -1.83272,-3.40591 -2.84628,-5.04864c2.24276,-0.78557 4.52907,-1.56137 6.82322,-2.30298z" fill="#ffffff"/><path d="M247.98114,164.1278c13.1206,-4.2373 23.5242,-14.2482 23.6276,-14.349l0.8438,-0.8225l-0.2919,1.1435c-2.04111,7.94073 -17.38457,16.92915 -27.90468,21.98559c-0.09715,-0.18919 -0.1949,-0.37796 -0.29327,-0.56629c10.26368,-4.93885 24.07386,-13.26436 27.13935,-20.3739c-2.9001,2.5764 -11.9717,10.0799 -22.9166,13.6168c-2.26789,0.73291 -4.52867,1.49941 -6.74748,2.2758c-0.11848,-0.19416 -0.23795,-0.38774 -0.35843,-0.58073c2.26749,-0.79448 4.58026,-1.57926 6.90161,-2.32926z" fill="#000000"/></g></g><g stroke-width="2.6533"><g><path d="M202.04726,185.56662l-1.1303,-1.9793l2.5472,0.0292c-9.3953,-4.8476 -12.9693,-11.6666 -13.1285,-11.977l-2.12,-4.1126l3.7146,2.1438c-8.671,-6.5669 -9.8888,-8.4481 -10.0454,-8.9071l-1.4407,-4.2267l3.7358,2.8019c0.0186,0.0159 1.4116,1.0374 4.3329,2.5763c-4.8476,-4.7387 -5.4711,-7.193 -5.5322,-7.5035l-0.8649,-4.2877l3.3219,3.1176c0.09136,0.08518 7.25526,6.64438 22.0492,12.06031c-0.0159,0.07161 -0.03189,0.14362 -0.04799,0.21604c-0.08374,0.37682 -0.10715,0.76431 -0.09215,1.1577c-15.37501,-5.52777 -22.8486,-12.41904 -22.94117,-12.50534v0.0026c0.0053,0.0319 0.7535,3.3219 8.6152,9.9499l-0.8092,1.0852c-5.9487,-2.6666 -8.7931,-4.7255 -8.9416,-4.8343c0.1459,0.268 1.7193,2.6745 14.9805,12.2635l-0.7456,1.125c-2.8337,-1.1834 -5.0917,-2.2473 -5.8585,-2.6878c0.15447,0.30156 3.59056,6.85376 12.7354,11.49024c-0.26452,0.79055 -0.51518,1.58437 -0.74118,2.37964l-0.31173,-0.00368l0.0053,0.0053c0.06732,0.11775 0.13696,0.2336 0.20884,0.34758c-0.16397,0.59698 -0.31316,1.19462 -0.443,1.79214c-0.38876,-0.4713 -0.74196,-0.97678 -1.05273,-1.51892z" fill="#000000"/><path d="" fill="#000000"/><g><path d="M184.40556,154.17022c0,0 7.41096,6.97545 22.94126,12.50765c0.06736,1.7485 0.89282,3.61312 0.55333,5.17365c-0.17613,0.80964 -0.39901,1.63438 -0.65319,2.47158c-21.5248,-13.63316 -22.8414,-20.15288 -22.8414,-20.15288z" fill="#e5e5e5"/><path d="M183.69446,154.29222l-0.4352,-2.1465l1.661,1.5601c0.09211,0.0858 7.39016,6.81329 22.44606,12.26539c-0.04781,0.46762 -0.01926,0.94822 0.04625,1.43318c-10.12473,-3.5806 -16.92228,-7.80601 -20.50761,-10.38717c2.39807,3.09598 7.93453,8.61428 20.5418,16.6268c-0.12711,0.44707 -0.26451,0.89797 -0.40979,1.35227c-21.71007,-13.71567 -23.28793,-20.42071 -23.34251,-20.70407z" fill="#cccccc"/></g><g><path d="M183.26196,160.36832c0,0 7.57202,5.70263 24.71474,10.43904c0.01557,0.35932 -0.00358,0.70876 -0.07655,1.04416c-0.436,2.00419 -1.15842,4.10089 -1.93315,6.25026c-21.83166,-15.17231 -22.70504,-17.73346 -22.70504,-17.73346z" fill="#e5e5e5"/><path d="M182.57476,160.56202l-0.7217,-2.1094l1.8679,1.4009c0.09543,0.0705 7.58056,5.57433 24.18603,10.23771c0.06926,0.48592 0.10026,0.95953 0.0499,1.41144c-9.34097,-2.55761 -15.86087,-5.40006 -19.92163,-7.50204c3.12633,2.58683 8.59938,6.77993 18.17006,13.43634c-0.15686,0.44046 -0.31696,0.88333 -0.47827,1.32826c-21.57616,-14.9864 -23.05556,-17.91575 -23.1523,-18.2032z" fill="#cccccc"/></g><g><path d="M191.64376,171.07172c1.431,0.82442 8.49308,4.04244 14.71224,5.93985c-0.63916,1.815 -1.34515,3.67314 -1.97317,5.54978c-9.24667,-4.71511 -12.73908,-11.48963 -12.73908,-11.48963z" fill="#e5e5e5"/><path d="M190.98836,171.35562l-1.0587,-2.0563l2.0961,1.2099c1.42425,0.8199 8.44233,4.0004 14.55143,5.86764c-0.14421,0.41868 -0.29292,0.83984 -0.44434,1.26316c-4.56027,-1.38818 -9.53615,-3.46303 -12.50179,-4.8304c1.71649,2.29454 5.19081,6.1097 10.97294,9.10034c-0.14991,0.43567 -0.2965,0.87249 -0.43795,1.31016c-9.39756,-4.72122 -12.99966,-11.5172 -13.17769,-11.8645z" fill="#cccccc"/></g><g><path d="M203.33416,184.94582c0,0 0.10678,0.00181 0.30495,0.00357c-0.03258,0.11472 -0.06466,0.22947 -0.09618,0.34425c-0.07178,-0.11406 -0.1414,-0.22999 -0.20877,-0.34782z" fill="#e5e5e5"/><path d="M202.69206,185.25352l-0.5678,-0.9923l1.71049,0.01946c-0.19218,0.639 -0.37033,1.27927 -0.52884,1.91983c-0.22011,-0.30192 -0.42528,-0.61738 -0.61385,-0.94699z" fill="#cccccc"/></g><g><path d="" fill="#e5e5e5"/><path d="" fill="#cccccc"/></g><g><path d="" fill="#e5e5e5"/><path d="" fill="#cccccc"/></g><g><path d="" fill="#e5e5e5"/><path d="" fill="#cccccc"/></g><g><path d="" fill="#e5e5e5"/><path d="" fill="#cccccc"/></g></g><g><path d="M186.76426,150.20612c0,0 9.03749,8.64296 21.11603,13.35768c-0.14487,0.61505 -0.2886,1.2664 -0.44141,1.95406c-0.1917,0.86265 -0.06726,1.78124 0.11054,2.69835c-9.39,-5.14656 -19.21506,-11.99554 -20.78516,-18.0101z" fill="#ffffff"/><path d="M186.44056,150.28842l-0.2971,-1.133l0.8464,0.8093c0.09789,0.093 9.10595,8.62416 20.96854,13.27165c-0.0513,0.21211 -0.10223,0.42872 -0.15324,0.64984c-9.77128,-3.80906 -17.63799,-10.23617 -20.3006,-12.56829c2.39031,5.47135 11.25521,11.66569 19.96878,16.48239c0.04783,0.28155 0.10445,0.56379 0.16224,0.84503c-9.44357,-5.12935 -19.55388,-12.07238 -21.19502,-18.35692z" fill="#000000"/></g></g><g stroke-width="2.6533"><g><path d="" fill="#ffffff"/><g fill="#000000"><path d=""/></g></g><g><path d="" fill="#e5e5e5"/><path d="" fill="#cccccc"/></g><g><path d="" fill="#e5e5e5"/><path d="" fill="#cccccc"/></g><g><path d="" fill="#e5e5e5"/><path d="" fill="#cccccc"/></g><g><path d="" fill="#e5e5e5"/><path d="" fill="#cccccc"/></g><g><path d="" fill="#e5e5e5"/><path d="" fill="#cccccc"/></g></g><g stroke-width="2.6533"><g><path d="" fill="#ffd18f"/><path d="" fill="#000000"/></g><g><path d="" fill="#ffffff"/><path d="" fill="#000000"/></g></g><g stroke-width="2.6533"><g><path d="" fill="#ffd18f"/><path d="" fill="#000000"/></g><g><path d="" fill="#ffffff"/><path d="" fill="#000000"/></g></g><g stroke-width="2.6533"><path d="" fill="#ffffff"/><path d="" fill="#ffffff"/><path d="" fill="#000000"/><path d="" fill="#000000"/></g><g stroke-width="2.6533"><path d="" fill="#597a54"/><path d="" fill="#597a54"/><path d="" fill="#597a54"/><path d="" fill="#7ca075"/><path d="" fill="#7ca075"/><path d="" fill="#7ca075"/><path d="" fill="#7ca075"/><path d="" fill="#7ca075"/><path d="" fill="#7ca075"/><path d="" fill="#7ca075"/><path d="" fill="#000000"/><path d="" fill="#000000"/><path d="" fill="#000000"/><path d="" fill="#000000"/></g><g stroke-width="2.6533"><path d="" fill="#ffd18f"/><path d="" fill="#000000"/></g><g stroke-width="2.6533"><path d="" fill="#000000"/><path d="" fill="#ffffff"/></g><g stroke-width="2.6533"><path d="" fill="#000000"/><path d="" fill="#ffffff"/></g><path d="" fill="#9966ff" stroke-width="0.5"/><path d="" fill="#9966ff" stroke-width="0.5"/><path d="" fill="#9966ff" stroke-width="0.5"/><path d="" fill="#9966ff" stroke-width="0.5"/><path d="" fill="#9966ff" stroke-width="0.5"/><path d="M241.06421,169.11673c-0.01257,0 -0.02507,-0.00007 -0.03752,-0.00019c0.20913,1.80868 0.58271,3.60839 1.27047,5.38952c0.71645,1.85546 2.75069,2.92899 3.71837,4.66669c0.50276,0.90283 0.296,2.06473 0.67704,3.02528c0.81716,2.05991 2.74577,3.60327 3.37404,5.72842c0.18143,0.61371 0.06628,4.64624 0.0456,5.68883c1.13986,2.74747 2.59908,6.46655 1.56509,9.50473c-1.04582,3.07293 -4.1223,4.09569 -5.79135,6.6481c-0.90697,1.387 -2.42793,4.43234 -3.76932,5.46925c-3.33042,2.57444 -6.52534,2.10159 -10.22975,3.22411c-8.524,2.58297 -17.87318,4.26279 -25.00662,-2.8263c-1.59359,-1.58369 -2.86957,-4.17289 -3.93808,-6.04527c-0.18022,-6.7835 0.29989,-13.44379 1.02031,-20.14361c0.31713,-2.94924 1.92611,-5.32803 2.1977,-8.2414c0.17276,-1.85322 -0.35154,-4.95516 0.11613,-6.58791c0.27402,-0.95667 1.3122,-1.52799 1.73772,-2.42756c0.45421,-0.96022 0.35079,-2.82243 0.32701,-4.1883c-0.05985,-0.00876 -0.12095,-0.01932 -0.18331,-0.03179c-2.45145,-0.49029 -1.96116,-2.94174 -1.96116,-2.94174c0.38028,-1.86782 1.29506,-3.60297 1.64484,-5.47674c0.55895,-2.99429 -0.58418,-6.32501 0,-9.34025c0.61121,-3.15478 2.16002,-6.44829 3.47085,-9.3422c0.39813,-0.87894 2.09477,-5.46691 2.49401,-5.99084c1.27946,-1.67904 3.53316,-3.1939 5.98874,-4.11973c-0.08643,0.40515 -0.16466,0.80652 -0.23858,1.20475c0.31392,-0.36531 0.62753,-0.71551 0.93862,-1.04829c0.96651,-1.03392 1.81529,-2.34438 3.12963,-2.8694c2.61827,-1.04588 9.55356,0.10254 11.56646,2.2429c0.9727,1.03429 0.94043,2.68525 1.55121,3.96699c1.23542,2.5926 3.21349,5.0625 4.36326,7.62473c2.3788,5.3011 2.07073,11.26656 2.99948,16.83906c0,0.617 -0.01206,1.23457 -0.03657,1.8519c0.22183,0.83861 0.41703,1.67459 0.58234,2.50336l0.01217,2.99348c0,0 -0.00001,2.06885 -1.88202,2.44252c-0.36998,0.34956 -0.91473,0.60691 -1.71684,0.60691zM239.12216,159.13096c-0.80907,-4.85439 -0.37396,-10.43436 -2.49478,-15.02768c-1.20326,-2.60604 -3.2708,-5.05455 -4.42756,-7.75922c-0.3545,-0.82888 -0.10495,-1.9054 -0.6465,-2.62612c-0.50464,-0.67158 -5.28202,-1.34784 -6.01519,-1.05366c-1.36811,0.54894 -1.91462,2.25132 -2.72808,3.48068c-2.06526,3.12122 -5.03715,6.41233 -5.66686,10.08385c0,0 -0.49029,2.45145 -2.94174,1.96116c-0.19497,-0.03899 -0.37133,-0.09039 -0.53081,-0.15198c-0.38083,1.03638 -0.70371,2.08166 -0.91942,3.11813c-0.34795,1.67184 -0.13179,3.48036 0.02533,5.27861c0.08564,-0.00657 0.17458,-0.00998 0.26692,-0.00998c2.5,0 2.5,2.5 2.5,2.5c-0.04902,3.49911 -1.68166,5.48667 -2.24282,8.71417c-0.37861,2.17759 0.13648,4.55464 -0.72206,6.59134c-0.32505,0.77111 -1.30397,1.17079 -1.55883,1.96785c-0.55844,1.74645 0.308,3.67597 0.11613,5.49947c-0.31051,2.95096 -1.93227,5.32696 -2.19771,8.24139c-0.55718,6.11773 -0.9085,12.15095 -1.1774,18.31625c0.44007,0.67655 2.04624,3.22995 2.65504,3.8444c5.67534,5.72802 13.40508,3.54324 20.04635,1.56911c2.76085,-0.82067 6.05902,-0.39036 8.45075,-2.27015c1.37468,-1.08044 1.84297,-2.97299 2.8238,-4.42043c1.12372,-1.6583 4.62431,-3.63054 5.19718,-5.43929c0.61545,-1.94323 -1.10697,-5.3665 -1.73146,-6.97805c-0.02474,-1.76646 0.56413,-3.61088 0.0456,-5.2997c-0.60335,-1.9651 -2.4504,-3.35359 -3.21908,-5.26011c-0.31221,-0.77435 -0.01729,-1.7386 -0.42181,-2.46898c-1.05987,-1.91367 -3.14475,-3.19852 -3.9736,-5.22299c-1.30948,-3.19837 -2.34998,-9.01551 -2.3659,-12.43945c-0.00314,-0.6754 0.1067,-1.34787 0.23256,-2.0191c1.08675,-0.00966 2.23739,-0.3147 3.57993,-1.07166c0.02769,-0.54915 0.04201,-1.09871 0.04201,-1.64787z" fill="#9966ff" stroke-width="0.5"/><path d="M239.15284,159.09148c0,0.54916 -0.07784,1.1759 -0.10553,1.72505c-1.34254,0.75696 -2.48777,1.0661 -3.57452,1.07576c-0.12586,0.67123 -0.17799,1.26211 -0.17485,1.93751c0.01592,3.42394 1.07508,9.29103 2.38456,12.4894c0.82885,2.02447 2.90918,3.32213 3.96905,5.2358c0.40452,0.73038 0.1067,1.69952 0.41891,2.47387c0.76868,1.90652 2.61241,3.29941 3.21576,5.26451c0.51853,1.68882 -0.07564,3.53863 -0.0509,5.30509c0.62449,1.61155 2.34307,5.03785 1.72762,6.98108c-0.57287,1.80875 -4.08249,3.78611 -5.20621,5.44441c-0.98083,1.44744 -1.45437,3.34194 -2.82905,4.42238c-2.39173,1.87979 -5.70081,1.45156 -8.46166,2.27223c-6.64127,1.97413 -14.39531,4.15468 -20.07065,-1.57334c-0.6088,-0.61445 -2.2195,-3.17016 -2.65957,-3.84671c0.2689,-6.1653 0.60716,-12.20939 1.16434,-18.32712c0.26544,-2.91443 1.87985,-5.30192 2.19036,-8.25288c0.19187,-1.8235 -0.6788,-3.76788 -0.12036,-5.51433c0.25486,-0.79706 1.23341,-1.20268 1.55846,-1.97379c0.85854,-2.0367 0.34809,-4.43494 0.7267,-6.61253c0.56116,-3.2275 2.20846,-5.23349 2.25748,-8.7326c0,0 0.06215,-2.42166 -2.43785,-2.42166c-0.09234,0 -0.24454,-0.07404 -0.33018,-0.06747c-0.15712,-1.79825 -0.36832,-3.61037 -0.02037,-5.28221c0.21571,-1.03647 0.54218,-2.08383 0.92301,-3.12021c0.15948,0.06159 0.33645,0.11268 0.53142,0.15167c2.45145,0.49029 2.94715,-1.96352 2.94715,-1.96352c0.62971,-3.67152 3.61283,-6.96533 5.67809,-10.08655c0.81346,-1.22936 1.36372,-2.93205 2.73183,-3.48099c0.73317,-0.29418 5.51789,0.38229 6.02253,1.05387c0.54155,0.72072 0.29319,1.79738 0.64769,2.62626c1.15676,2.70467 3.23267,5.15498 4.43593,7.76102c2.12082,4.59332 1.70176,10.18163 2.51083,15.03602z" data-paper-data="{&quot;noHover&quot;:false,&quot;origItem&quot;:[&quot;Path&quot;,{&quot;applyMatrix&quot;:true,&quot;segments&quot;:[[[239.12216,159.13096],[0,0],[-0.80907,-4.85439]],[[236.62738,144.10328],[2.12082,4.59332],[-1.20326,-2.60604]],[[232.19982,136.34406],[1.15676,2.70467],[-0.3545,-0.82888]],[[231.55332,133.71794],[0.54155,0.72072],[-0.50464,-0.67158]],[[225.53813,132.66428],[0.73317,-0.29418],[-1.36811,0.54894]],[[222.81005,136.14496],[0.81346,-1.22936],[-2.06526,3.12122]],[[217.14319,146.22881],[0.62971,-3.67152],[0,0]],[[214.20145,148.18997],[2.45145,0.49029],[-0.19497,-0.03899]],[[213.67064,148.03799],[0.15948,0.06159],[-0.38083,1.03638]],[[212.75122,151.15612],[0.21571,-1.03647],[-0.34795,1.67184]],[[212.77655,156.43473],[-0.15712,-1.79825],[0.08564,-0.00657]],[[213.04347,156.42475],[-0.09234,0],[2.5,0]],[[215.54347,158.92475],[0,0],[-0.04902,3.49911]],[[213.30065,167.63892],[0.56116,-3.2275],[-0.37861,2.17759]],[[212.57859,174.23026],[0.85854,-2.0367],[-0.32505,0.77111]],[[211.01976,176.19811],[0.25486,-0.79706],[-0.55844,1.74645]],[[211.13589,181.69758],[0.19187,-1.8235],[-0.31051,2.95096]],[[208.93818,189.93897],[0.26544,-2.91443],[-0.55718,6.11773]],[[207.76078,208.25522],[0.2689,-6.1653],[0.44007,0.67655]],[[210.41582,212.09962],[-0.6088,-0.61445],[5.67534,5.72802]],[[230.46217,213.66873],[-6.64127,1.97413],[2.76085,-0.82067]],[[238.91292,211.39858],[-2.39173,1.87979],[1.37468,-1.08044]],[[241.73672,206.97815],[-0.98083,1.44744],[1.12372,-1.6583]],[[246.9339,201.53886],[-0.57287,1.80875],[0.61545,-1.94323]],[[245.20244,194.56081],[0.62449,1.61155],[-0.02474,-1.76646]],[[245.24804,189.26111],[0.51853,1.68882],[-0.60335,-1.9651]],[[242.02896,184.001],[0.76868,1.90652],[-0.31221,-0.77435]],[[241.60715,181.53202],[0.40452,0.73038],[-1.05987,-1.91367]],[[237.63355,176.30903],[0.82885,2.02447],[-1.30948,-3.19837]],[[235.26765,163.86958],[0.01592,3.42394],[-0.00314,-0.6754]],[[235.50021,161.85048],[-0.12586,0.67123],[1.08675,-0.00966]],[[239.08014,160.77882],[-1.34254,0.75696],[0.02769,-0.54915]],[[239.12215,159.13095],[0,0.54916],[0,0]]],&quot;closed&quot;:true,&quot;fillColor&quot;:[0,0,0,1]}]}" fill="#ffffff" stroke-width="0.5"/><path d="" fill="#9966ff" stroke-width="0.5"/><path d="M219.33429,151.78221c0,-1.38071 1.11929,-2.5 2.5,-2.5c1.38071,0 2.5,1.11929 2.5,2.5c0,1.38071 -1.11929,2.5 -2.5,2.5c-1.38071,0 -2.5,-1.11929 -2.5,-2.5z" fill="#9966ff" stroke-width="0.5"/><path d="M230.32282,149.58451c0,-1.38071 1.11929,-2.5 2.5,-2.5c1.38071,0 2.5,1.11929 2.5,2.5c0,1.38071 -1.11929,2.5 -2.5,2.5c-1.38071,0 -2.5,-1.11929 -2.5,-2.5z" fill="#9966ff" stroke-width="0.5"/><path d="" fill="#fff366" stroke-width="0.5"/><path d="" fill="#fff366" stroke-width="0.5"/><path d="M226.71145,163.05171c1.38071,0 2.5,1.11929 2.5,2.5c0,1.38071 -1.11929,2.5 -2.5,2.5c-1.04799,0 -1.94538,-0.64484 -2.31701,-1.55939c-0.41253,0.3003 -0.92046,0.47745 -1.46976,0.47745c-1.38071,0 -2.5,-1.11929 -2.5,-2.5c0,-1.38071 1.11929,-2.5 2.5,-2.5c0.0067,0 0.01338,0.00003 0.02007,0.00008c-0.22614,-0.37592 -0.3562,-0.8162 -0.3562,-1.28685c0,-1.38071 1.11929,-2.5 2.5,-2.5c1.38071,0 2.5,1.11929 2.5,2.5c0,1.38071 -1.11929,2.5 -2.5,2.5c-0.0067,0 -0.01338,-0.00003 -0.02007,-0.00008c0.06627,0.11017 0.1243,0.22587 0.17321,0.34624c0.41253,-0.3003 0.92046,-0.47745 1.46976,-0.47745z" fill="#fff366" stroke-width="0.5"/><path d="M227.08855,242.2462c-1.5,2 -3.5,0.5 -3.5,0.5l-2.30187,-1.73427c-1.09052,-1.11694 -1.8807,-2.18728 -2.56996,-3.28425c-0.09238,0.80851 -0.21468,1.61743 -0.37316,2.42687l-0.56706,2.27992c0,0 -0.60634,2.42536 -3.0317,1.81902c-2.42536,-0.60634 -1.81902,-3.0317 -1.81902,-3.0317l0.51487,-2.04782c0.22507,-1.09767 0.37488,-2.19905 0.46809,-3.30302c-1.39532,2.27735 -3.12596,4.22729 -5.6517,6.07557l-3.23497,0.71015c0,0 -2.45145,0.49029 -2.94174,-1.96116c-0.49029,-2.45145 1.96116,-2.94174 1.96116,-2.94174l2.1747,-0.37178c3.0395,-2.39018 4.32666,-5.40387 5.73181,-8.9246c0,0 0.54494,-1.36234 1.84355,-1.58216c-0.17914,-2.59645 -0.39191,-5.19047 -0.39945,-7.76775c0,0 0,-2.5 2.5,-2.5c2.5,0 2.5,2.5 2.5,2.5c-0.01142,3.34896 0.28889,6.68711 0.4582,10.02394c0.86675,0.32765 1.3494,1.13207 1.3494,1.13207c1.5257,2.55662 2.23768,4.92432 4.36298,6.97115l2.02587,1.51154c0,0 2,1.5 0.5,3.5z" fill="#fff366" stroke-width="0.5"/><path d="M251.19986,243.59591c-1.76777,1.76777 -3.53553,0 -3.53553,0l-2.17633,-2.46219c-0.9219,-2.30716 -1.11386,-4.84524 -2.6376,-6.21645c0.24001,2.20936 0.63059,4.42451 1.37986,6.66128l0.47799,0.10474c0,0 1.76777,1.76777 0,3.53553c-1.76777,1.76777 -3.53553,0 -3.53553,0l-1.68588,-2.05913c-0.48338,-1.45671 -0.93686,-2.91628 -1.31631,-4.39326c-0.57047,0.50679 -1.42773,0.72857 -1.90124,1.33663c-0.45878,0.58915 -0.49669,1.4084 -0.74504,2.1126c0,0 -0.92848,2.32119 -3.24967,1.39272c-2.32119,-0.92848 -1.39272,-3.24967 -1.39272,-3.24967c0.47294,-1.09903 0.71452,-2.32988 1.41883,-3.29708c0.53074,-0.72885 1.60992,-0.91154 2.16387,-1.6229c1.31172,-1.68445 0.94918,-4.59701 2.62016,-5.86872c0.00627,-2.27461 0.05038,-4.56625 -0.38592,-6.74392c-0.61651,-3.07716 -1.65442,-5.29101 -1.66801,-8.58728c0,0 0,-2.5 2.5,-2.5c2.5,0 2.5,2.5 2.5,2.5c-0.01538,3.10786 0.98641,4.68045 1.57779,7.64175c0.48927,2.44998 0.67295,4.87 0.82066,7.28057c1.25747,0.17427 2.38224,0.46627 2.92609,0.8146c2.97042,1.90251 3.57487,6.30395 4.77504,9.30105l1.06948,0.78361c0,0 1.76777,1.76777 0,3.53553z" fill="#fff366" stroke-width="0.5"/></g></g></svg>