<svg version="1.1" xmlns="http://www.w3.org/2000/svg" xmlns:xlink="http://www.w3.org/1999/xlink" width="157.36264" height="112.43348" viewBox="0,0,157.36264,112.43348"><g transform="translate(-101.08629,-122.6385)"><g data-paper-data="{&quot;isPaintingLayer&quot;:true}" fill="#fbff00" fill-rule="nonzero" stroke="none" stroke-width="0.5" stroke-linecap="butt" stroke-linejoin="miter" stroke-miterlimit="10" stroke-dasharray="" stroke-dashoffset="0" style="mix-blend-mode: normal"><path d="M253.5,129.57198c0,0.18455 -0.01362,0.35547 -0.03886,0.51377c0.17007,-0.03308 0.34908,-0.03931 0.53886,-0.01377c6.18733,0.83266 4.53784,6.38082 3.1755,9.73175c-0.319,0.78464 -1.60318,0.9197 -1.8658,1.72496c-0.37411,1.14713 0.41607,2.44711 0.12342,3.61767c-0.92911,3.71646 -4.07903,7.29849 -5,11c-0.30031,1.207 0.20014,2.4966 0.04815,3.73108c-0.16794,1.36407 -0.66667,2.66667 -1,4c0.03404,4.8968 0.06283,9.79779 0.01873,14.69454c-0.02094,2.32532 -0.36556,3.58487 0.45671,5.6903c0.05354,0.13709 0.18185,-0.24428 0.20899,-0.38893c0.15294,-0.81522 0.22713,-1.64316 0.33431,-2.46577v-3.83561c0,0 0,0 0,0c0,-1.38071 1.11929,-2.5 2.5,-2.5c1.18975,0 2.18539,0.83109 2.43804,1.9444l0.98732,3.94927l-0.06318,0.01579c0.04096,0.09439 0.08069,0.18941 0.11909,0.28509c0.0244,0.06079 0.01873,6.05596 0.01873,6.30546c0,2.96435 0.45238,6.48352 -0.03228,9.40046c-0.34555,2.07967 -1.64217,3.9224 -2,6c-0.2014,1.16937 0.27873,2.45297 -0.15802,3.55625c-0.39422,0.99585 -1.62679,1.44237 -2.18307,2.35762c-0.92621,1.52388 -1.37521,3.32556 -1.65891,5.08613c-0.32257,2.00176 -0.54413,4.02433 -1,6c-0.33148,1.4366 0.37824,3.36172 -0.69995,4.36731c-1.17585,1.09667 -3.16697,0.58133 -4.76777,0.73223c-3.91573,0.36912 -8.06457,0 -12,0c-4.22315,0 -11.31712,1.69205 -13.3097,-3.54329c-0.70665,-1.85665 -0.1481,-3.97057 -0.1903,-5.95671c-0.13367,-6.29112 1.06695,-13.41622 0.03228,-19.59954c-0.29431,-1.75882 -0.72422,-3.56743 -1.65891,-5.08613c-0.49416,-0.80293 -1.51493,-1.19155 -2,-2c-0.54233,-0.90388 -0.45767,-2.09612 -1,-3c-0.48507,-0.80845 -1.51612,-1.19084 -2,-2c-0.58254,-0.97415 -0.63118,-2.19116 -1.11916,-3.21595c-1.9208,-4.0338 -4.2184,-3.52598 -8.02975,-3.70565c-1.58868,1.144 -2.73289,2.92506 -4.49271,3.78277c-3.19141,1.55544 -5.04354,1.31731 -8.23175,1.3245c-5.6666,0.01278 -11.33338,0 -17,0c-3,0 -6,0 -9,0c-1,0 -2.01464,0.17048 -3,0c-0.4708,-0.08145 -0.89438,-1.07008 -1.23223,-0.73223c-0.33785,0.33785 0.65078,0.76144 0.73223,1.23223c0.17048,0.98536 0,2 0,3c0,5.7695 -0.86134,12.11236 0.96772,17.59954c0.01908,2.60023 0.45244,5.24027 0,7.80091c-0.43632,2.46939 -2.04038,5.96728 -3.95023,7.58631c-0.86448,0.73284 -2.23283,0.55432 -3.20316,1.13986c-0.80722,0.48712 -1.17913,1.53625 -2,2c-2.04394,1.15474 -4.59823,0.95515 -6.91387,1.34109c-1.03975,0.17329 -1.95936,0.83216 -3,1c-1.97448,0.31845 -4.02921,-0.34059 -6,0c-1.99797,0.34529 -3.99824,0.67743 -6,1c-4.05922,0.65411 -7.89432,3.61758 -12,4c-1.22823,0.1144 -2.64037,0.40648 -3.80836,0.08496c-0.05219,1.17549 -0.09209,2.33075 -0.09209,3.44732c0,0 0,2.5 -2.5,2.5c-2.5,0 -2.5,-2.5 -2.5,-2.5c0,-3.63545 0.48989,-7.76052 0.33076,-11.5687c-0.42102,-1.69173 -0.76855,-3.34156 -1.20247,-4.64073l-0.39606,-0.0228c0,0 -1.48242,-1.48242 -0.37471,-3.08975c-0.13873,-0.41833 -0.25299,-0.84273 -0.32524,-1.27756c-0.48546,-2.92174 0.5016,-6.0976 0,-9c-0.34529,-1.99797 -0.67743,-3.99824 -1,-6c-1.03153,-6.40135 -4.96919,-11.75467 -5.03228,-18.40046c0,-6.1741 -0.95201,-13.29756 0.03228,-19.40046c0.16784,-1.04064 0.84707,-1.95706 1,-3c0.5809,-3.96155 -0.03228,-8.58011 -0.03228,-12.59954l0,-3c0,-0.15806 0.01467,-0.3127 0.04272,-0.46263c-0.0277,-0.16488 -0.04272,-0.34362 -0.04272,-0.53737c0,-2.5 2.5,-2.5 2.5,-2.5c2.68095,0 5.96145,0.4882 8.59954,0.03228c1.0387,-0.17951 1.96025,-0.82671 3,-1c2.12965,-0.35494 3.21291,0.56002 5.08613,-0.65891c0.79023,-0.51422 1.18709,-1.52243 2,-2c0.27298,-0.16037 6.50504,-2.27316 6.91387,-2.34109c2.91693,-0.48466 6.43611,-0.03228 9.40046,-0.03228c1.86655,0 3.76026,0.35015 5.59954,0.03228c1.0387,-0.17951 1.95936,-0.83216 3,-1c3.4291,-0.55305 5.61117,0.12961 9,-1c4.33366,-0.04114 8.14772,-1.01373 12.40046,-1.03228c5.23597,-0.02284 11.46503,0.91963 16.59954,0.03228c3.1699,-0.54782 6.57248,-1.02463 9.70149,-1.93258c0.70331,-0.20408 5.80688,-1.98573 6.29851,-2.06742c2.00419,-0.33301 4.08481,0.2811 6.095,-0.01355c1.35984,-0.19932 2.6388,-0.81018 4,-1c3.92229,-0.54696 8.34048,-0.01873 12.30546,-0.01873c4.741,0 10.78715,-0.9965 15.40046,0.03228c1.52471,0.34002 3.19292,0.66982 4.36731,1.69995c0.70822,0.62122 0.03315,2.06828 0.69401,2.73966c0.37623,0.38222 1.00477,-0.41643 1.53822,-0.47189c0.99464,-0.10342 2,0 3,0h1c0,0 2.5,0 2.5,2.5z"/></g></g></svg>