<svg version="1.1" xmlns="http://www.w3.org/2000/svg" xmlns:xlink="http://www.w3.org/1999/xlink" width="157.62979" height="134.89314" viewBox="0,0,157.62979,134.89314"><g transform="translate(-74.22009,-79.61436)"><g data-paper-data="{&quot;isPaintingLayer&quot;:true}" fill="#fff366" fill-rule="nonzero" stroke="none" stroke-width="0.5" stroke-linecap="butt" stroke-linejoin="miter" stroke-miterlimit="10" stroke-dasharray="" stroke-dashoffset="0" style="mix-blend-mode: normal"><path d="M83.5,108.4633c-0.04139,0.00639 -0.08364,0.01199 -0.12677,0.01677c0.62677,-1.9022 0.62677,-3.48007 0.62677,-3.48007c0,-6.00664 0.20775,-11.54212 0.87087,-17.39818c0.31732,-2.80228 2.31278,-5.19031 2.94968,-7.98746c1.79817,0.14961 3.58627,0.42971 5.4849,0.90437c4.89773,-0.03405 9.7967,-0.03484 14.69454,-0.01873c1.63747,0.00539 3.21459,0.16462 4.77243,-0.29292c0.02957,1.22051 0.13184,2.3796 0.35669,3.39475c0.76291,3.4443 2.58776,7.08794 5.1589,10.06333c0.10013,0.8325 0.13465,1.65537 -0.10759,2.44377c-0.44745,1.45629 -1.42616,2.72233 -1.81056,4.19652c-1.4232,5.45797 -0.59771,9.02368 -1.24075,14.09273c-0.26531,2.09142 -1.62038,3.92628 -2,6c-0.75785,4.13983 -1.0452,8.31074 -1.12913,12.60182v1c0,0 0,0.38338 0.07507,1c-0.07507,0.61662 -0.07507,1 -0.07507,1c0,3.16165 0.73515,7.33755 0.12913,10.39818c-0.20474,1.03402 -0.84513,1.95735 -1,3c-0.31246,2.10366 0.24687,4.27467 -0.0542,6.37999c-0.18717,1.30887 -1.96601,6.01447 -1.9458,6.62001c0.11783,3.52999 -0.48916,7.72442 1.75845,10.44893c9.05325,10.97418 18.56024,2.19115 27.40995,-1.11461c0.15809,-0.05905 0.31837,-0.10321 0.48051,-0.13501c0.40381,0.07554 0.81571,0.04844 1.2721,-0.04389c1.17374,0.10278 2.39514,0.48907 3.55167,0.31728c1.04265,-0.15487 2,-0.66667 3,-1c2.103,0.19422 3.62935,0.39152 6,0c2.08001,-0.34352 3.92217,-1.64353 6,-2c1.9712,-0.33817 4.0217,0.29384 6,0c1.04265,-0.15487 1.96052,-0.82507 3,-1c3.89379,-0.65529 7.74183,-0.87944 11.56046,-2.38404c1.99427,-0.78577 4.3366,-1.08158 5.90766,-2.53977c2.38193,-2.2108 4.1189,-5.10796 5.50098,-8.04923c0.61049,-1.29921 0.04815,-2.88278 0.29995,-4.29602c0.1849,-1.03775 0.84513,-1.95735 1,-3c1.11792,-7.52636 0.12913,-16.00147 0.12913,-23.60182c0,-3.19089 -0.55908,-7.23936 -0.12913,-10.39818c0.14216,-1.04446 0.84513,-1.95735 1,-3c0.4818,-3.2437 -0.51371,-6.81573 0,-10c0.53921,-3.3423 1.50307,-6.65445 2,-10c0.24934,-1.67866 -0.20418,-3.41601 -0.10993,-5.10243c1.67356,-0.00115 5.42966,-0.00095 5.63952,0.03289c1.04064,0.16784 1.95706,0.84707 3,1c7.31177,1.07216 15.02126,-1.71876 21.91387,2.34109c2.20918,1.30124 3.84941,3.39449 5.88986,4.94698c0.36598,5.17108 1.0941,11.43036 0.26353,16.5801c-0.16784,1.04064 -0.85093,1.9565 -1,3c-0.18856,1.31993 0.1956,2.68109 0,4c-0.45676,3.07983 -2.58082,5.93273 -3,9c-0.55158,4.03604 -0.33813,8.46559 -1.1624,12.46265c-0.33483,1.62365 -1.50343,2.99506 -1.85163,4.6159c-0.65009,3.0261 0.18759,6.24142 -0.42269,9.2758c-0.78236,3.88997 -2.89699,7.72252 -3.56327,11.64565c-0.36834,2.16882 0.03228,4.39967 0.03228,6.59954c0,6.5575 0.88651,13.81389 -0.01873,20.30546c-0.18982,1.3612 -0.82614,2.63667 -1,4c-0.11517,0.90309 0.15051,5.94631 0,7c-0.22989,1.60942 -1.40459,5.7268 -2.10956,7.48511c-0.57658,1.43808 -0.66397,3.31662 -1.90993,4.23754c-0.78076,0.57707 -6.09247,0.47189 -7.46178,0.47189c-4.33333,0 -8.66667,0 -13,0c-1.18189,0 -6.49262,0.0706 -7.17964,-0.29581c-1.06046,-0.56558 -1.33333,-2 -2,-3c-8.52421,0.89406 -16.96841,-0.31028 -25.22081,-1.73647c-3.2748,-0.56595 -6.91687,0.75053 -10.17393,-0.0346c-1.4492,-0.34933 -2.57249,-1.57054 -4,-2c-3.07792,-0.92598 -8.17807,0.06688 -11.42562,0.06688c-3.24839,0 -7.07495,0.43176 -10.30546,-0.01873c-2.23374,-0.31149 -4.43924,-0.99695 -6.69454,-0.98127c-10.66625,0 -21.33394,0.0538 -32,0c-2.7031,-0.01363 -9.28273,-0.51105 -11.02811,-3.03822c-1.69329,-2.45176 -0.10334,-5.93612 0.6564,-8.25235c0.89135,-2.71746 2.44967,-5.79051 2.90399,-8.60989c0.15909,-0.98726 -0.16905,-2.01439 0,-3c0.64834,-3.78002 2.00327,-5.63508 1.96772,-9.59954c0,-8.32144 1.9771,-16.13758 3.01873,-24.30546c0.64174,-5.03218 -0.01873,-10.59944 -0.01873,-15.69454c0,-8.51223 0,-17.02446 0,-25.5367z"/><path d=""/></g></g></svg>